<?xml version="1.0" encoding="UTF-8"?>
<svg id="_圖層_1" data-name="圖層 1" xmlns="http://www.w3.org/2000/svg" viewBox="0 0 1920 1920">
  <g>
    <path d="M275.88,1110.52v-300.63h44.18v150.92h1.38l144.05-150.92h49.24l-108.15,114.49,124.72,186.15h-48.78l-103.09-156.52-59.37,61.25v95.27h-44.18Z"/>
    <path d="M580.09,1110.52v-300.63h44.18v126.1h161.08v-126.1h43.26v300.63h-43.26v-141.71h-161.08v141.71h-44.18Z"/>
    <path d="M922.95,1110.52v-300.63h44.18v300.63h-44.18Z"/>
    <path d="M1061.02,1110.52v-300.63h45.56l125.64,189.35,36.82,62.05h2.3c-3.68-48.84-5.52-80.46-5.52-94.87v-156.52h41.42v300.63h-44.64l-126.1-189.75-37.28-62.05h-1.84c.3,6.4,1.07,16.28,2.3,29.62,2.14,28.56,3.22,50.04,3.22,64.45v157.72h-41.88Z"/>
    <path d="M1536.88,1115.72c-50.33,0-89.75-15.74-118.28-47.24-24.85-28.02-37.28-64.05-37.28-108.08,0-53.1,18.1-94.07,54.31-122.9,28.22-22.15,62.89-33.23,104.01-33.23,39.88.27,73.17,12.68,99.87,37.23l-23.93,24.82c-21.17-19.21-46.02-28.82-74.56-28.82-40.81,0-71.65,14.68-92.51,44.03-14.73,21.09-22.09,46.98-22.09,77.66,0,50.98,16.87,86.74,50.62,107.28,18.1,10.68,39.58,16.01,64.43,16.01,27.3-.26,48.16-6.14,62.59-17.61v-78.46h-73.17v-31.62h113.21v126.1c-21.17,19.21-50.48,30.55-87.9,34.03-6.44.53-12.89.8-19.33.8Z"/>
  </g>
  <g>
    <path d="M275.88,1211.63v-57.86h6.53v39.26h.14l16.97-20.87h7.31l-13.2,15.83,14.98,23.64h-7.17l-11.57-19.03-7.45,8.66v10.37h-6.53Z"/>
    <path d="M319.63,1211.63v-57.86h6.6v15.83l-.21,8.16c4.45-4.35,8.83-6.56,13.13-6.6,8,.1,12.02,5.25,12.07,15.48v24.99h-6.67v-24.14c0-5.63-1.49-8.99-4.47-10.08-.9-.28-1.89-.43-2.98-.43-2.84,0-5.73,1.3-8.66,3.9-.66.62-1.4,1.33-2.2,2.13v28.61h-6.6Z"/>
    <path d="M370.69,1163.99c-2.08,0-3.48-.85-4.19-2.56-.24-.57-.36-1.14-.36-1.7,0-2.13.97-3.5,2.91-4.12.57-.14,1.11-.21,1.63-.21,2.18,0,3.62.88,4.33,2.63.19.57.28,1.14.28,1.7,0,1.89-.9,3.2-2.7,3.9-.62.24-1.25.36-1.92.36ZM367.35,1211.63v-39.47h6.6v39.47h-6.6Z"/>
    <path d="M390.94,1211.63v-39.47h5.47l.57,5.68h.21c4.31-4.21,8.47-6.44,12.5-6.67h.78c8,.1,12.02,5.25,12.07,15.48v24.99h-6.67v-24.14c0-5.63-1.49-8.99-4.47-10.08-.9-.28-1.89-.43-2.98-.43-2.84,0-5.73,1.3-8.66,3.9-.66.62-1.4,1.33-2.2,2.13v28.61h-6.6Z"/>
    <path d="M452.29,1229.81c-6.96,0-11.79-1.7-14.48-5.11-1.28-1.61-1.92-3.46-1.92-5.54.05-3.36,2.01-6.32,5.89-8.87v-.35c-2.37-1.42-3.57-3.57-3.62-6.46,0-2.74,1.4-5.14,4.19-7.17.09-.05.17-.09.21-.14v-.28c-3.08-2.46-4.76-5.63-5.04-9.51-.05-.43-.07-.8-.07-1.14,0-4.92,1.94-8.73,5.82-11.43,2.65-1.75,5.66-2.63,9.02-2.63,1.85,0,3.67.33,5.47.99h13.77v5.11h-8.09c2.13,2.08,3.2,4.78,3.2,8.09,0,5.02-1.94,8.8-5.82,11.36-2.46,1.61-5.3,2.41-8.52,2.41-1.99,0-3.95-.47-5.89-1.42-1.66,1.51-2.51,3.1-2.56,4.76,0,2.51,1.73,3.9,5.18,4.19.57.05,1.14.07,1.7.07h7.74c8.52,0,13.06,2.7,13.63,8.09.05.43.07.85.07,1.28,0,4.02-1.96,7.34-5.89,9.94-3.74,2.51-8.4,3.76-13.99,3.76ZM453.22,1225.33c4.64,0,8.19-1.28,10.65-3.83,1.28-1.37,1.92-2.82,1.92-4.33,0-2.84-1.94-4.45-5.82-4.83-.71-.05-1.47-.07-2.27-.07h-6.82c-1.66,0-3.36-.21-5.11-.64-2.65,1.99-4,4.21-4.05,6.67,0,2.84,1.75,4.87,5.25,6.11,1.8.62,3.88.92,6.25.92ZM452.29,1194.59c2.98,0,5.25-1.28,6.82-3.83.99-1.61,1.49-3.45,1.49-5.54,0-3.93-1.42-6.67-4.26-8.24-1.23-.66-2.58-.99-4.05-.99-3.27,0-5.68,1.37-7.24,4.12-.81,1.47-1.21,3.17-1.21,5.11,0,3.74,1.37,6.46,4.12,8.16,1.32.81,2.77,1.21,4.33,1.21Z"/>
    <path d="M489.72,1211.63l-10.93-39.47h6.74l5.89,22.86c.19.99.52,2.48.99,4.47.61,2.89,1.06,5.07,1.35,6.53h.35c1.09-4.59,1.99-8.26,2.7-11l6.11-22.86h6.46l6.18,22.86c.38,1.51.92,3.72,1.63,6.6.52,1.99.9,3.46,1.14,4.4h.28c.38-1.56.9-3.86,1.56-6.89.43-1.85.73-3.22.92-4.12l5.82-22.86h6.25l-10.65,39.47h-8.02l-5.68-21.3c-.33-1.18-1.23-4.97-2.7-11.36h-.36c-.99,4.54-1.89,8.38-2.7,11.5l-5.54,21.16h-7.81Z"/>
    <path d="M562.79,1212.55c-3.93-.05-7.69-1.7-11.29-4.97h-.21l-.57,4.05h-5.32v-57.86h6.6v15.83l-.21,7.1c4.21-3.64,8.33-5.49,12.35-5.54,6.39,0,10.91,2.84,13.56,8.52,1.51,3.22,2.27,7.05,2.27,11.5,0,7.57-2.25,13.35-6.74,17.32-3.03,2.7-6.51,4.05-10.44,4.05ZM561.72,1207.02c4.02,0,7.08-1.96,9.16-5.89,1.42-2.7,2.13-5.96,2.13-9.8-.1-9.7-3.55-14.58-10.37-14.62-3.27.05-6.82,1.87-10.65,5.47v20.73c3.12,2.74,6.37,4.12,9.73,4.12Z"/>
    <path d="M602.99,1212.55c-4.54,0-7.83-1.61-9.87-4.83-1.14-1.85-1.7-3.95-1.7-6.32,0-5.25,3.05-9.09,9.16-11.5,3.69-1.47,8.73-2.56,15.12-3.27-.1-6.63-2.79-9.96-8.09-10.01-3.74.05-7.69,1.47-11.86,4.26l-2.63-4.61c5.3-3.41,10.48-5.11,15.55-5.11,7.38,0,11.79,3.64,13.21,10.93.33,1.61.5,3.36.5,5.25v24.28h-5.47l-.57-4.76h-.21c-4.59,3.79-8.97,5.68-13.13,5.68ZM604.9,1207.3c3.12,0,6.46-1.54,10.01-4.61.28-.24.54-.45.78-.64v-11.07c-9.65,1.18-15.33,3.46-17.04,6.81-.47.95-.71,1.99-.71,3.12,0,3.46,1.63,5.51,4.9,6.18.66.14,1.35.21,2.06.21Z"/>
    <path d="M641.83,1163.99c-2.08,0-3.48-.85-4.19-2.56-.24-.57-.36-1.14-.36-1.7,0-2.13.97-3.5,2.91-4.12.57-.14,1.11-.21,1.63-.21,2.18,0,3.62.88,4.33,2.63.19.57.28,1.14.28,1.7,0,1.89-.9,3.2-2.7,3.9-.62.24-1.25.36-1.92.36ZM638.5,1211.63v-39.47h6.6v39.47h-6.6Z"/>
    <path d="M665.49,1212.55c-2.04,0-3.46-.9-4.26-2.7-.33-.71-.5-1.47-.5-2.27,0-2.18.88-3.74,2.63-4.69.71-.33,1.42-.5,2.13-.5,1.89,0,3.31.88,4.26,2.63.38.81.57,1.66.57,2.56,0,2.18-.95,3.69-2.84,4.54-.66.28-1.33.43-1.99.43Z"/>
    <path d="M701.43,1212.55c-6.01,0-10.74-2.2-14.2-6.6-2.89-3.74-4.33-8.42-4.33-14.06,0-7.1,2.37-12.61,7.1-16.54,3.45-2.79,7.45-4.19,12-4.19,4.16.05,8,1.59,11.5,4.61l-3.41,4.47c-2.7-2.41-5.32-3.62-7.88-3.62-4.17,0-7.43,1.85-9.8,5.54-1.7,2.74-2.56,5.99-2.56,9.73,0,5.77,1.75,10.03,5.25,12.78,1.99,1.56,4.31,2.34,6.96,2.34,3.36-.05,6.46-1.35,9.3-3.9l2.84,4.47c-3.65,3.31-7.9,4.97-12.78,4.97Z"/>
    <path d="M741.84,1212.55c-5.3,0-9.7-1.96-13.21-5.89-3.41-3.88-5.11-8.8-5.11-14.77,0-7.19,2.32-12.75,6.96-16.68,3.31-2.7,7.1-4.05,11.36-4.05,5.35,0,9.77,1.99,13.28,5.96,3.36,3.88,5.04,8.8,5.04,14.77,0,7.15-2.32,12.66-6.96,16.54-3.27,2.75-7.05,4.12-11.36,4.12ZM741.84,1207.02c4.16,0,7.31-1.96,9.44-5.89,1.37-2.6,2.06-5.68,2.06-9.23,0-5.82-1.66-10.13-4.97-12.92-1.89-1.56-4.07-2.34-6.53-2.34-4.12,0-7.22,1.99-9.3,5.96-1.37,2.6-2.06,5.7-2.06,9.3,0,6.01,1.7,10.34,5.11,12.99,1.8,1.42,3.88,2.13,6.25,2.13Z"/>
    <path d="M774.15,1211.63v-39.47h5.47l.57,5.75h.21c4.12-4.45,8.21-6.7,12.28-6.74,5.54.05,9.18,2.56,10.93,7.53,4.64-4.97,8.97-7.48,12.99-7.53,7.95.1,11.95,5.25,12,15.48v24.99h-6.6v-24.14c0-5.92-1.63-9.32-4.9-10.22-.76-.19-1.56-.28-2.41-.28-3.03.05-6.37,2.06-10.01,6.03v28.61h-6.6v-24.14c0-5.92-1.63-9.32-4.9-10.22-.76-.19-1.56-.28-2.41-.28-3.12.05-6.46,2.06-10.01,6.03v28.61h-6.6Z"/>
  </g>
</svg>